{"title":"Jumper.2007.DTS.720p.BRRIP.x264-Gondy10","uid":7080687,"size":3112496080,"categoryP":"video","categoryS":"hd___movies","magnet":"?xt=urn:btih:17f980d0fb7e323a697a989faa7ad8b1851cdb4a&amp;dn=Jumper.2007.DTS.720p.BRRIP.x264-Gondy10&amp;tr=udp%3A%2F%2Ftracker.openbittorrent.com%3A80&amp;tr=udp%3A%2F%2Fopen.demonii.com%3A1337&amp;tr=udp%3A%2F%2Ftracker.coppersurfer.tk%3A6969&amp;tr=udp%3A%2F%2Fexodus.desync.com%3A6969","seeders":0,"leechers":1,"uploader":"Gondy10","files":-1,"time":1331016090,"description":"\n   SOURCE: SiNNERS 4.36 GB\n   IMDB: http://www.imdb.com/title/tt0489099/\n   \n\n\n     General\n      Complete name : Jumper.2007.DTS.720p.BRRIP.x264-Gondy10\n      Format : Matroska\n      File size : 2.90 GiB\n      Duration : 1h 28mn\n      Overall bit rate : 4 690 Kbps\n      Encoded date : UTC 2012-03-05 05:20:09\n      Writing application : mkvmerge v5.3.0 ('I could have danced') built on Feb  9 2012 10:38:07\n      Writing library : libebml v1.2.3 + libmatroska v1.3.0\n   Video #1\n      ID : 1\n      Format : AVC\n      Format/Info : Advanced Video Codec\n      Format profile : &lt;a class=&quot;__cf_email__&quot; href=&quot;/cdn-cgi/l/email-protection&quot; data-cfemail=&quot;dd95b4bab59d91eef3ec&quot;&gt;[email&amp;#160;protected]&lt;/a&gt;&lt;script cf-hash='f9e31' type=&quot;text/javascript&quot;&gt;\n/* &lt;![CDATA[ */!function(){try{var t=&quot;currentScript&quot;in document?document.currentScript:function(){for(var t=document.getElementsByTagName(&quot;script&quot;),e=t.length;e--;)if(t[e].getAttribute(&quot;cf-hash&quot;))return t[e]}();if(t&amp;&amp;t.previousSibling){var e,r,n,i,c=t.previousSibling,a=c.getAttribute(&quot;data-cfemail&quot;);if(a){for(e=&quot;&quot;,r=parseInt(a.substr(0,2),16),n=2;a.length-n;n+=2)i=parseInt(a.substr(n,2),16)^r,e+=String.fromCharCode(i);e=document.createTextNode(e),c.parentNode.replaceChild(e,c)}}}catch(u){}}();/* ]]&gt; */&lt;/script&gt;\n      Format settings, CABAC : Yes\n      Format settings, ReFrames : 3 frames\n      Muxing mode : Container profile=&lt;a class=&quot;__cf_email__&quot; href=&quot;/cdn-cgi/l/email-protection&quot; data-cfemail=&quot;d98cb7b2b7b6aeb799eaf7e8&quot;&gt;[email&amp;#160;protected]&lt;/a&gt;&lt;script cf-hash='f9e31' type=&quot;text/javascript&quot;&gt;\n/* &lt;![CDATA[ */!function(){try{var t=&quot;currentScript&quot;in document?document.currentScript:function(){for(var t=document.getElementsByTagName(&quot;script&quot;),e=t.length;e--;)if(t[e].getAttribute(&quot;cf-hash&quot;))return t[e]}();if(t&amp;&amp;t.previousSibling){var e,r,n,i,c=t.previousSibling,a=c.getAttribute(&quot;data-cfemail&quot;);if(a){for(e=&quot;&quot;,r=parseInt(a.substr(0,2),16),n=2;a.length-n;n+=2)i=parseInt(a.substr(n,2),16)^r,e+=String.fromCharCode(i);e=document.createTextNode(e),c.parentNode.replaceChild(e,c)}}}catch(u){}}();/* ]]&gt; */&lt;/script&gt;\n      Codec ID : V_MPEG4/ISO/AVC\n      Duration : 1h 28mn\n      Bit rate : 3 087 Kbps\n      Nominal bit rate : 3 322 Kbps\n      Width : 1 280 pixels\n      Height : 544 pixels\n      Display aspect ratio : 2.35:1\n      Frame rate : 23.976 fps\n      Standard : NTSC\n      Resolution : 24 bits\n      Colorimetry : 4:2:0\n      Scan type : Progressive\n      Bits/(Pixel*Frame) : 0.185\n      Stream size : 1.91 GiB (66%)\n      Writing library : x264 core 112\n      Encoding settings : cabac=1 / ref=3 / deblock=1:0:0 / analyse=0x3:0x113 / me=hex / subme=7 / psy=1 / psy_rd=1.00:0.00 / mixed_ref=1 / me_range=16 / chroma_me=1 / trellis=1 / 8x8dct=1 / cqm=2 / deadzone=21,11 / fast_pskip=1 / chroma_qp_offset=-2 / threads=6 / sliced_threads=0 / slices=1 / nr=0 / decimate=1 / interlaced=0 / constrained_intra=0 / bframes=3 / b_pyramid=0 / b_adapt=1 / b_bias=0 / direct=1 / weightb=1 / open_gop=0 / weightp=2 / keyint=250 / keyint_min=23 / scenecut=40 / intra_refresh=0 / rc_lookahead=40 / rc=cbr / mbtree=1 / bitrate=3322 / ratetol=1.0 / qcomp=0.60 / qpmin=3 / qpmax=51 / qpstep=4 / vbv_maxrate=3322 / vbv_bufsize=3309 / nal_hrd=cbr / frame-packing=0 / ip_ratio=1.40 / aq=1:1.00\n      colour_primaries : BT.709-5, BT.1361, IEC 61966-2-4, SMPTE RP177\n      transfer_characteristics : BT.709-5, BT.1361\n      matrix_coefficients : BT.709-5, BT.1361, IEC 61966-2-4 709, SMPTE RP177\n   Audio #2\n      ID : 2\n      Format : DTS\n      Format/Info : Digital Theater Systems\n      Codec ID : A_DTS\n      Duration : 1h 28mn\n      Bit rate mode : Constant\n      Bit rate : 1 510 Kbps\n      Channel(s) : 6 channels\n      Channel positions : Front: L C R, Surround: L R, LFE\n      Sampling rate : 48.0 KHz\n      Resolution : 24 bits\n      Stream size : 956 MiB (32%)","torrent":{"xt":"urn:btih:17f980d0fb7e323a697a989faa7ad8b1851cdb4a","amp;dn":"Jumper.2007.DTS.720p.BRRIP.x264-Gondy10","amp;tr":["udp%3A%2F%2Ftracker.openbittorrent.com%3A80","udp%3A%2F%2Fopen.demonii.com%3A1337","udp%3A%2F%2Ftracker.coppersurfer.tk%3A6969","udp%3A%2F%2Fexodus.desync.com%3A6969"],"infoHash":"17f980d0fb7e323a697a989faa7ad8b1851cdb4a","infoHashBuffer":{"type":"Buffer","data":[23,249,128,208,251,126,50,58,105,122,152,159,170,122,216,177,133,28,219,74]},"announce":[],"urlList":[]}}